<svg xmlns="http://www.w3.org/2000/svg">
  <defs>
    <symbol id="filetype-html" viewBox="0 0 16 16">
      <path fill="currentColor" fill-rule="evenodd" d="M14 4.5V11h-1V4.5h-2A1.5 1.5 0 0 1 9.5 3V1H4a1 1 0 0 0-1 1v9H2V2a2 2 0 0 1 2-2h5.5zm-9.736 7.35v3.999h-.791v-1.714H1.79v1.714H1V11.85h.791v1.626h1.682V11.85h.79Zm2.251.662v3.337h-.794v-3.337H4.588v-.662h3.064v.662zm2.176 3.337v-2.66h.038l.952 2.159h.516l.946-2.16h.038v2.661h.715V11.85h-.8l-1.14 2.596H9.93L8.79 11.85h-.805v3.999zm4.71-.674h1.696v.674H12.61V11.85h.79v3.325Z" />
    </symbol>
    <symbol id="triangle" viewBox="0 0 24 24">
      <path fill="currentColor" d="M1 21h22L12 2" />
    </symbol>
    <symbol id="universal" viewBox="0 0 16 16">
      <g fill="currentColor">
        <path d="M8 4.143A1.071 1.071 0 1 0 8 2a1.071 1.071 0 0 0 0 2.143m-4.668 1.47l3.24.316v2.5l-.323 4.585A.383.383 0 0 0 7 13.14l.826-4.017c.045-.18.301-.18.346 0L9 13.139a.383.383 0 0 0 .752-.125L9.43 8.43v-2.5l3.239-.316a.38.38 0 0 0-.047-.756H3.379a.38.38 0 0 0-.047.756Z" />
        <path d="M8 0a8 8 0 1 0 0 16A8 8 0 0 0 8 0M1 8a7 7 0 1 1 14 0A7 7 0 0 1 1 8" />
      </g>
    </symbol>
    <symbol id="plugin" viewBox="0 0 16 16">
      <path fill="currentColor" fill-rule="evenodd" d="M1 8a7 7 0 1 1 2.898 5.673c-.167-.121-.216-.406-.002-.62l1.8-1.8a3.5 3.5 0 0 0 4.572-.328l1.414-1.415a.5.5 0 0 0 0-.707l-.707-.707l1.559-1.563a.5.5 0 1 0-.708-.706l-1.559 1.562l-1.414-1.414l1.56-1.562a.5.5 0 1 0-.707-.706l-1.56 1.56l-.707-.706a.5.5 0 0 0-.707 0L5.318 5.975a3.5 3.5 0 0 0-.328 4.571l-1.8 1.8c-.58.58-.62 1.6.121 2.137A8 8 0 1 0 0 8a.5.5 0 0 0 1 0" />
    </symbol>
  </defs>
</svg>