<svg xmlns="http://www.w3.org/2000/svg" width="116.81" height="137.718" viewBox="0 0 30.906 36.438"><defs><linearGradient id="A" x1="15.438" y1="2.326" x2="15.451" y2="34.512" gradientUnits="userSpaceOnUse"><stop offset="0" stop-color="#754aaa"/><stop offset="1" stop-color="#37214c"/></linearGradient></defs><path d="M15.781 18.703l13.725-7.855.467 16.335-14.07 7.328z" fill="#17280b"/><path d="M15.526 34.512L1.747 26.808l-.241-17.28 13.043-7.2 1.778-.004 14.579 7.124-1.743 17.423z" fill="url(#A)"/><path d="M15.276 0L.277 8.689l-.239.437L0 27.239l.077.286.077.286.442.414 14.502 8.213h.389.39l14.297-8.115.47-.43.259-.558.003-17.887-.005-.691-.588-.415L15.645 0zm1.051 2.324l12.839 7.281.001.04.001.04-13.642 7.777h-.075c.075 0-13.705-7.824-13.705-7.777v-.094l12.803-7.265.021 7.761c0 .854.121 1.332.929 1.36.624-.006.826-.376.826-.925zm-14.58 9.348l12.871 7.401-.07 15.069-12.801-7.334zm27.419-.092l-.003 15.291-12.843 7.276.009-15.078zm-13.627 1.248c-.362-.006-.795.216-.887.521l.002 3.172c.308.288.432.467.874.458.363-.008.545-.218.797-.501l.002-2.926c-.017-.419-.479-.719-.788-.724z" fill="#fff"/><path d="M16.322 29.697a2.55 2.55 0 0 1 .88-.936c2.265-.511 2.436-.257 3.783-.682 1.073-.376 2.075-.908 2.866-1.737.479-.647.168-1.14-.088-1.353-.293-.243-.671-.391-1.08-.061-1.648 1.605-2.426 1.82-4.624 1.903-.131-.2-.323-.377-.29-.628 1.089-1.225 2.434-2.309 3.93-2.985.826-.044 1.683.004 2.483-.219.914-.306 1.767-.791 2.454-1.47.452-.607.133-.997-.135-1.263-.29-.288-.821-.335-1.155-.041-.401.408-.749.876-1.309 1.058-.356.169-.669.251-1.061.176l-.149-.238c.231-.484.5-.911.899-1.276.566-.285 1.191-.503 1.65-.951.691-.675 1.16-1.515 1.545-2.392.12-.565-.284-.857-.56-.982a.82.82 0 0 0-1.004.328c-.415.814-.773 1.755-1.652 2.154l-.238-.198.092-1.421c.053-.523-.571-.797-.851-.8-.383-.003-.861.337-.896.711v2.736c-.276 1.084-.753 2.084-1.564 2.868-3.121 2.083-2.032 1.845-3.528 2.593-.172-.029-.303-.127-.394-.295zm.005-9.283l-.002 2.516.114-.24c2.285-1.167 3.284-3.026 3.27-5.582L17.9 18.157c.011 1.061-.331 1.753-1.187 2.43-.179.078-.387-.173-.387-.173zm-1.76 9.57l.026-5.602c-.103.189-.39.337-.559.259-.566-.388-1.263-.995-2.117-1.745-.088-.085-.274-.235-.277-.561.153-.799.851-1.007 1.113-1.927.246-.611.211-1.568.17-2.31l-1.929-1.109c.535.528.462 2.213.142 3.045 0 0-.413.635-.555.712s-.555.108-.751-.062c-.854-.742-.921-1.242-.784-3.501.08-1.035-.348-1.504-1.011-1.435s-.75.654-.73.847c.067.497.198.999-.025 1.478-.109.043-.169.063-.285.017l-.422-.438c-.321-.333-.598-.644-.768-1.088l-.346-.65c-.77-.769-1.704-.089-1.505.798.33.654.717 1.386 1.134 1.867s.79.753 1.279.976c.233.094.447.174.667.331a2.13 2.13 0 0 1 .557.58c.149.227.338.428.406.697l-.103.039c-.654.127-1.513-.356-2.034-.745l-.473-.345c-.312-.167-.927-.069-1.184.25s-.272.852-.104 1.007c1.437 1.132 2.922 1.521 4.9 1.67.984.461 1.817 1.096 2.597 1.851l1.565 1.414c.063.343-.053.54-.35.591-1.154-.131-2.326-.248-3.344-.855l-1.154-1.061c-.305-.235-.944-.296-1.298.073s-.252 1.076-.001 1.312c.712.588 1.356 1.103 2.127 1.445.809.358 1.755.532 2.86.668 1.064.108 2.415.198 2.566 1.504zM12.545 7.205a.87.87 0 0 0-.833.86l.1 3.649c-.063.211-.078.43-.577.306-.651-.611-.813-.932-1.145-1.986a.84.84 0 0 0-.22-.407c-.257-.262-.659-.43-1.071-.156-.471.268-.413.831-.341 1.237s.74 1.537.74 1.537c.466.562.971 1.14 1.654 1.435.116.045.387.37.418.686l.083.328 1.446.883h.086.086l.093-.293-.048-.604c-.064-.813-.019-.803.301-1.995.071-.264.106-.292.108-.422l.009-4.331c.002-.393-.445-.738-.886-.728zm5.814.104c-.344-.012-.858.21-.858.839l.059 4.604.381 1.186-.083 1.411c.019.216.103.292.253.229l.61-.349.61-.35.131-.081.13-.081.091-.568c.197-.301.419-.504.745-.683.339-.237.672-.451.917-.794.649-.735 1.006-1.643 1.203-2.444.107-.365-.267-.777-.612-.865-.364-.093-.881.051-.993.359-.232.722-.414 1.688-1.065 2.138l-.259.172c-.316.033-.484-.099-.504-.395l.093-3.702c0-.371-.423-.611-.847-.625z" fill="#d0ff00"/></svg>
