<svg xmlns="http://www.w3.org/2000/svg" width="300" height="52" viewBox="0 0 119.949 20.788" fill="currentColor"><path d="M57.715 0v20.441h4.291V0zM7.626 4.958c-1.469 0-2.783.329-3.943.986S1.615 7.519.958 8.698C.32 9.858 0 11.201 0 12.728c0 1.624.31 3.044.928 4.262.638 1.198 1.536 2.135 2.696 2.812 1.179.657 2.561.986 4.146.986 1.024 0 1.972-.145 2.842-.434s1.643-.715 2.319-1.276c.677-.58 1.208-1.275 1.594-2.087l-3.247-1.594c-.348.677-.812 1.179-1.392 1.508-.561.329-1.236.493-2.029.493-1.237 0-2.165-.348-2.784-1.044-.533-.619-.828-1.421-.887-2.407H14.73a6.88 6.88 0 0 0 .087-.783l.029-.898c0-1.508-.3-2.803-.899-3.885a6.1 6.1 0 0 0-2.523-2.523c-1.082-.599-2.349-.899-3.799-.899zm31.651 0c-.87 0-1.614.174-2.232.522-.619.329-1.083.793-1.392 1.392V5.305h-4.03v15.135h4.291v-7.712c0-.889.126-1.604.377-2.146.251-.561.599-.966 1.043-1.218.464-.251.976-.377 1.537-.377.251 0 .474.019.667.058l.666.088V5.044a1.28 1.28 0 0 0-.405-.058 4.24 4.24 0 0 0-.522-.029zm9.108 0c-1.527 0-2.889.329-4.088.986a6.99 6.99 0 0 0-2.784 2.725c-.677 1.179-1.015 2.581-1.015 4.205s.338 3.025 1.015 4.204a7.19 7.19 0 0 0 2.784 2.754c1.198.638 2.561.957 4.088.957 1.546 0 2.91-.319 4.089-.957 1.198-.657 2.135-1.575 2.812-2.754s1.015-2.58 1.015-4.204-.338-3.026-1.015-4.205a6.94 6.94 0 0 0-2.812-2.725c-1.179-.657-2.542-.986-4.089-.986zm22.923 0c-1.527 0-2.889.329-4.088.986a6.99 6.99 0 0 0-2.784 2.725c-.677 1.179-1.014 2.581-1.014 4.205s.337 3.025 1.014 4.204a7.19 7.19 0 0 0 2.784 2.754c1.198.638 2.561.957 4.088.957 1.546 0 2.91-.319 4.089-.957 1.198-.657 2.135-1.575 2.812-2.754a7.33 7.33 0 0 0 .772-1.977l3.315 3.508.004-.003c.474.476 1.01.887 1.617 1.225 1.198.638 2.562.957 4.089.957 1.546 0 2.909-.319 4.088-.957 1.198-.657 2.135-1.575 2.812-2.754a7.33 7.33 0 0 0 .772-1.977l1.027 1.087.632.669v3.584h4.291.001v-4.783-3.973a4.99 4.99 0 0 1 .042-.659c.056-.416.166-.783.333-1.102a2.57 2.57 0 0 1 .292-.442c.464-.541 1.082-.812 1.855-.812.734 0 1.305.242 1.711.726.425.464.637 1.14.637 2.029v9.017h.001 4.291v-8.785c0-.947.223-1.682.667-2.204s1.073-.783 1.885-.783c.715 0 1.275.242 1.681.726.425.464.638 1.14.638 2.029v9.017h4.291V10.351c0-1.16-.213-2.136-.638-2.929-.425-.812-1.044-1.42-1.855-1.826a5.27 5.27 0 0 0-1.37-.479h-.001c-.507-.106-1.065-.159-1.674-.159-.966 0-1.846.194-2.639.58-.773.367-1.363.879-1.769 1.536a4.26 4.26 0 0 0-1.74-1.565c-.735-.367-1.604-.551-2.609-.551-.986 0-1.856.174-2.609.522-.734.348-1.295.841-1.681 1.479V5.305h-4.03v5.717l-3.284-3.546-.015.009a6.95 6.95 0 0 0-1.944-1.542c-1.179-.657-2.542-.986-4.088-.986-1.527 0-2.89.329-4.089.986-1.179.638-2.106 1.546-2.783 2.725-.348.607-.593 1.282-.762 2.007l-3.015-3.199c-.549-.619-1.202-1.13-1.959-1.533-1.179-.657-2.542-.986-4.089-.986zm-55.337.348v9.076c0 1.43.3 2.619.899 3.566s1.421 1.662 2.465 2.146c1.044.464 2.232.695 3.566.695s2.522-.232 3.566-.695c1.063-.483 1.885-1.199 2.465-2.146.599-.947.899-2.135.899-3.566V5.305h-4.291v8.844c0 1.005-.241 1.768-.725 2.29-.464.503-1.102.754-1.914.754s-1.459-.251-1.942-.754c-.464-.522-.696-1.285-.696-2.29V5.305zM7.482 8.118c.696 0 1.285.136 1.768.406.483.251.851.647 1.102 1.188.199.414.319.907.36 1.479H4.201c.051-.56.178-1.043.381-1.449.271-.541.657-.947 1.16-1.218s1.082-.406 1.74-.406zm40.903.406c.696 0 1.305.173 1.827.521.522.329.928.812 1.218 1.45.309.638.464 1.43.464 2.378 0 .928-.154 1.72-.464 2.378-.29.638-.696 1.121-1.218 1.449s-1.131.493-1.827.493c-.677 0-1.285-.164-1.826-.493-.522-.329-.928-.811-1.218-1.449-.29-.657-.435-1.45-.435-2.378 0-.947.145-1.74.435-2.378s.696-1.122 1.218-1.45c.541-.348 1.15-.521 1.826-.521zm22.923 0c.696 0 1.305.173 1.827.521.522.329.928.812 1.218 1.45.309.638.464 1.43.464 2.378 0 .928-.154 1.72-.464 2.378-.29.638-.696 1.121-1.218 1.449s-1.131.493-1.827.493c-.677 0-1.285-.164-1.826-.493-.522-.329-.928-.811-1.218-1.449-.29-.657-.435-1.45-.435-2.378 0-.947.145-1.74.435-2.378s.696-1.122 1.218-1.45c.541-.348 1.15-.521 1.826-.521zm16.696 0c.696 0 1.304.173 1.826.521.244.154.462.342.656.563.22.252.407.548.562.887.309.638.465 1.43.465 2.378 0 .928-.155 1.72-.465 2.378-.29.638-.696 1.121-1.218 1.449s-1.13.493-1.826.493c-.677 0-1.286-.164-1.827-.493-.522-.329-.928-.811-1.218-1.449-.29-.657-.434-1.45-.434-2.378 0-.947.145-1.74.434-2.378s.696-1.122 1.218-1.45c.541-.348 1.151-.521 1.827-.521z"></path></svg>